<svg xmlns="http://www.w3.org/2000/svg" version="1.1" xmlns:xlink="http://www.w3.org/1999/xlink" xmlns:svgjs="http://svgjs.dev/svgjs" width="2000" height="1247" viewBox="0 0 2000 1247"><g transform="matrix(1,0,0,1,-1.2121212121212466,0.504858299595071)"><svg viewBox="0 0 396 247" data-background-color="#000000" preserveAspectRatio="xMidYMid meet" height="1247" width="2000" xmlns="http://www.w3.org/2000/svg" xmlns:xlink="http://www.w3.org/1999/xlink"><g id="tight-bounds" transform="matrix(1,0,0,1,0.2400000000000091,-0.09999999999999432)"><svg viewBox="0 0 395.52 247.2" height="247.2" width="395.52"><g><svg></svg></g><g><svg viewBox="0 0 395.52 247.2" height="247.2" width="395.52"><g transform="matrix(1,0,0,1,75.54432,63.98806795593635)"><svg viewBox="0 0 244.43135999999998 119.22386408812729" height="119.22386408812729" width="244.43135999999998"><g><svg viewBox="0 0 244.43135999999998 119.22386408812729" height="119.22386408812729" width="244.43135999999998"><g><svg viewBox="0 0 244.43135999999998 119.22386408812729" height="119.22386408812729" width="244.43135999999998"><g><svg viewBox="0 0 244.43135999999998 119.22386408812729" height="119.22386408812729" width="244.43135999999998"><g><svg viewBox="0 0 244.43135999999998 119.22386408812729" height="119.22386408812729" width="244.43135999999998"><g><svg viewBox="0 0 244.43135999999998 119.22386408812729" height="119.22386408812729" width="244.43135999999998"><g transform="matrix(1,0,0,1,0,0)"><svg width="244.43135999999998" viewBox="2.5 -39.75 81.7 39.85" height="119.22386408812729" data-palette-color="#ffffff"><path d="M41.7-37.7L36.95-34 36.95 0.05 34.2 0.05 10.45-30 10.45-4.6 15.7-1.95 14.7 0.05 3 0.05 3-1.5 7.7-5.2 7.7-34.5 2.5-37.3 3.5-39.3 11.05-39.3 34.2-10 34.2-34.7 29-37.3 30-39.3 41.7-39.3 41.7-37.7ZM84.2-1.9L83.2 0.1 73.9 0.1 62.9-17.65 60.55-19.35 61.3-20.85 64.1-20.85Q67.5-20.85 69.47-22.58 71.45-24.3 71.45-27.3L71.45-27.3Q71.45-31.25 69.25-33.88 67.05-36.5 62.85-36.5L62.85-36.5Q60.05-36.5 57.7-34.85L57.7-34.85 57.7-3.7 62.95-1.9 61.95 0.1 46.75 0.1 46.75-1.45 51.45-5.15 51.45-35.55 46.25-37.25 47.25-39.25 53.05-39.25Q57.6-39.25 62-39.55L62-39.55Q65.2-39.75 66.75-39.75L66.75-39.75Q70.1-39.75 72.72-38.4 75.35-37.05 76.77-34.75 78.2-32.45 78.2-29.7L78.2-29.7Q78.2-27.2 76.65-24.93 75.1-22.65 72.57-20.98 70.05-19.3 67.25-18.45L67.25-18.45 70.5-17.35 78.25-4.85 84.2-1.9Z" opacity="1" transform="matrix(1,0,0,1,0,0)" fill="#000000" class="undefined-text-0" data-fill-palette-color="primary" id="text-0"></path></svg></g></svg></g></svg></g></svg></g></svg></g></svg></g></svg></g><g><path d="M0 123.6c0-68.262 55.338-123.6 123.6-123.6 40.65 0 76.717 19.624 99.244 49.915l-6.786 0c-21.662-27.145-55.029-44.539-92.458-44.539-65.293 0-118.224 52.931-118.224 118.224 0 65.293 52.931 118.224 118.224 118.224 37.429 0 70.796-17.394 92.458-44.539l6.786 0c-22.527 30.291-58.594 49.915-99.244 49.915-68.262 0-123.6-55.338-123.6-123.6z" fill="#000000" stroke="transparent" data-fill-palette-color="tertiary"></path></g></svg></g><defs></defs></svg><rect width="395.52" height="247.2" fill="none" stroke="none" visibility="hidden"></rect></g></svg></g></svg>